<svg width="12" height="12" viewBox="0 0 12 12" fill="none" xmlns="http://www.w3.org/2000/svg">
    <path fill-rule="evenodd" clip-rule="evenodd" d="M10.2213 1.76989C10.4702 2.01383 10.4702 2.43425 10.2316 2.673L9.15299 3.76296C8.90925 4.0121 8.4892 4.0121 8.25066 3.77334C8.00173 3.52421 8.00173 3.10899 8.24028 2.86504L9.31893 1.78027C9.56267 1.53633 9.98272 1.52595 10.2213 1.76989ZM1.9758 11.2318C1.6647 11.5484 1.13572 11.5432 0.829769 11.2318C0.523746 10.9152 0.523746 10.4014 0.829769 10.0848L5.75109 5.12283C6.06224 4.8114 6.59119 4.8114 6.89716 5.12283C7.2083 5.43943 7.20312 5.95327 6.89716 6.26469L1.9758 11.2318ZM10.242 10.2145C10.4806 9.97572 10.4754 9.55532 10.2316 9.31136L9.1478 8.23184C8.90406 7.99305 8.48401 7.99821 8.24028 8.24216C8.00173 8.48612 8.00692 8.90136 8.25066 9.14531L9.33449 10.2301C9.57822 10.4689 9.99828 10.4636 10.242 10.2145ZM3.76491 2.86504C4.0035 3.10899 4.00349 3.52421 3.75452 3.77334C3.51601 4.0121 3.09597 4.0121 2.85223 3.76296L1.7684 2.67819C1.52466 2.43944 1.52982 2.01903 1.77872 1.76989C2.0173 1.52595 2.43734 1.53633 2.68108 1.78027L3.76491 2.86504ZM6.00001 0C5.65256 0 5.36215 0.295847 5.36215 0.643597V2.22663C5.36215 2.57439 5.65256 2.86504 6.00001 2.86504C6.34746 2.86504 6.64305 2.57439 6.64305 2.22663V0.643597C6.64305 0.295847 6.34746 0 6.00001 0ZM12 5.99998C12 5.65223 11.7096 5.36158 11.3621 5.36158H9.78047C9.43302 5.36158 9.13743 5.65223 9.13743 5.99998C9.13743 6.34773 9.43302 6.63839 9.78047 6.63839H11.3621C11.7096 6.63839 12 6.34773 12 5.99998ZM0 5.99998C0 6.34773 0.295631 6.63839 0.643075 6.63839H2.21954C2.56699 6.63839 2.86262 6.34773 2.86262 5.99998C2.86262 5.65223 2.56699 5.36158 2.21954 5.36158H0.643075C0.295631 5.36158 0 5.65223 0 5.99998ZM6.00001 9.13491C5.65256 9.13491 5.36215 9.43079 5.36215 9.77854V11.3564C5.36215 11.7041 5.65256 12 6.00001 12C6.34746 12 6.64305 11.7041 6.64305 11.3564V9.77854C6.64305 9.43079 6.34746 9.13491 6.00001 9.13491Z" fill="url(#paint0_linear_6221_42165)"/>
    <defs>
        <linearGradient id="paint0_linear_6221_42165" x1="12.6207" y1="21.4286" x2="0.104558" y2="22.5725" gradientUnits="userSpaceOnUse">
            <stop stop-color="#4891FF"/>
            <stop offset="0.270833" stop-color="#94BFFF"/>
            <stop offset="0.479167" stop-color="#FFC69D"/>
            <stop offset="0.65625" stop-color="#FF8A4F"/>
            <stop offset="0.84375" stop-color="#C25EFF"/>
        </linearGradient>
    </defs>
</svg>
